<?xml version="1.0" encoding="utf-8"?>
<!-- Generator: Adobe Adobe Illustrator 24.2.0, SVG Export Plug-In . SVG Version: 6.00 Build 0)  -->
<svg version="1.1" id="Layer_1" xmlns="http://www.w3.org/2000/svg" xmlns:xlink="http://www.w3.org/1999/xlink" x="0px" y="0px"
	 viewBox="520 100 680 860" xml:space="preserve">
<style type="text/css">
	.st0{fill:#FFFFFF;}
</style>
<g id="Layer_2">
	<path class="st0" d="M894.15,121.6c-32.57-18.11-73.59-21.95-107.6-6.73c-34.01,15.22-59.14,50.44-58.96,87.7
		c0.06,12.43,2.74,24.73,2.91,37.16c0.17,12.75-2.3,25.36-3.82,38.02c-4.78,39.78-0.06,80.67,13.65,118.32
		c-23.55,11.4-48.67,19.58-74.42,24.23c0.59-28.64-7.3-57.88-24.8-80.57c-17.49-22.68-45.03-38.11-73.67-38.23
		c-43.8-0.18-82.67,36.6-91.92,79.41s7.56,88.53,36.96,121.01c4.45,4.92,9.32,9.8,11.54,16.05c2.9,8.17,0.81,17.13-0.3,25.73
		c-2.51,19.5,0.37,39.67,8.24,57.68c2.91,6.66,6.55,13.32,6.71,20.58c0.21,9.64-5.69,18.17-9.3,27.12
		c-9.49,23.55-1.61,52.94,18.4,68.58c14.71,11.5,34.68,15.93,46.96,29.99c5.51,6.31,9.03,14.11,14,20.86
		c15.15,20.56,41.49,28.85,66.03,35.93c17.59,5.07,35.53,10.2,53.84,9.67s37.36-7.62,47.91-22.59c5-7.1,8.26-16.01,15.74-20.42
		c10.22-6.02,24.26-0.21,30.65,9.78c6.38,9.99,6.76,22.67,5.43,34.45c-1.4,12.45-3.9,26.82,4.6,36.02
		c3.47,3.76,17.29,13.95,21.99,15.98c55.77,24.17,39.65,20.16,99.73,29.41c29.25,4.51,82.37,6.8,138.26-1.35
		c29.99-4.37,58.77-18.83,86.18-34.67c29.75-17.19,10.14-67.04,10.29-101.4s10.85-74.32,42.8-86.94
		c25.64-10.13,55.95,1.49,81.68-8.41c15-5.77,26.48-18.21,35.38-31.59c18.7-28.08,23.12-62.32,27.1-95.82
		c5.86-49.37,3.8-5.47,6.62-86.64c0.51-14.52,0.37-23.62,10.12-34.38c23.86-26.36,14.92-55.27,14.92-90.83
		c0-42.23-19.74-54.54-55.27-54.54c-11.87,0-49.82-0.91-61.25-4.1c-14.61-4.07-23.98-17.75-34.05-29.09
		c-36.1-40.64-96.33-58.01-148.53-42.82c-16.32-47.37-67.95-74.41-117.72-80.22C954.87,109.73,917.6,114.35,894.15,121.6z"/>
</g>
<g>
	<g>
		<path d="M709.9,569.8c-7.08,1.6-13.36,2.45-19.35,4.26c-8.36,2.52-16,1.99-21.25-5.36c-4.56-6.38-8.4-4.14-12.56-0.38
			c-9.76,8.83-20.96,14.69-33.44,19.04c-27.44,9.57-53.15-3.57-62.32-31.5c-4.25-12.94-7.26-24.42,6.84-33.22
			c-31.01-34.32-37.38-74.91-34.72-117.53c1.18-18.81,5.59-37.56,20.67-51.17c19.87-17.94,48.76-14.45,63.38,8.09
			c11.92,18.38,19.8,38.47,18.84,60.89c-0.71,16.48,4.89,31.8,7.51,47.67c0.56,3.4,2.33,6.12,6.26,5.63c2.91-0.36,5.38-2,4.94-5.49
			c-1.37-10.65,6.86-14.37,14.01-16.25c27.69-7.26,55.56-13.99,83.6-19.7c21.84-4.45,39.1,7.26,54.62,20.24
			c27.42,22.94,56.74,43.65,82.09,69.02c5.23,5.24,10.98,5.71,17.37,3.98c28.22-7.66,57.59-7.64,86.17-13.21
			c23.34-4.55,29.47-8.58,33.54-31.93c2.19-12.55,2.29-25.46,3.46-39.78c-23.72,10.49-45.88,10.31-67.22-0.86
			c-21.11-11.05-33.93-29.58-42.81-53.78c-5.06,9.24-8.89,16.29-12.78,23.32c-26.58,48.14-83.67,51.42-115.81,6.71
			c-18.52-25.77-24.96-55-23.06-85.96c2.13-34.76,12.61-66.31,40.39-89.82c19.51-16.52,54.63-17.16,74.14-0.25
			c14.71,12.74,25.45,27.53,31.11,46.14c1,3.28,3.2,6.2,5.29,10.1c8.58-6.54,8.81-16.86,13.49-24.62
			c18.41-30.53,41.94-49.66,80.03-43.23c23.64,3.99,37.64,21.07,49.75,39.96c4.38,6.83,7.49,14.33,10.47,23.26
			c14.21-12.49,26.16-25.02,42.14-32.32c39.55-18.08,77.65-17.48,113.38,9.07c10.44,7.76,18.21,18.43,23.71,30.3
			c3.42,7.38,8.2,10.44,16.51,10.3c24.84-0.45,49.69-0.27,74.54-0.12c19.33,0.12,29.87,10.39,30.51,29.77
			c0.36,11.03,0.45,22.1,0.04,33.12c-0.53,14-5.17,25.6-20.54,29.31c-7.48,1.81-6.82,7.51-6.82,13.06
			c0.01,41.02,0.43,82.05-0.15,123.06c-0.49,34.71-14.77,61.95-47.86,75.86c-17.83,7.5-37.51,11.44-56.65,9.16
			c-25.08-2.98-41.64,5.37-55.45,26.42c-16.21,24.71-28.73,50.31-33.85,79.44c-2.9,16.51,2.13,32.27,5.94,47.7
			c3.1,12.58,5.42,25.33,8.6,37.88c2.94,11.57-1.24,20.09-12,24.76c-32.1,13.95-66.12,19.28-100.63,23.23
			c-47.56,5.45-94.28,1.38-140.51-9.93c-8.32-2.04-16.47-5.44-24.16-9.29c-14.83-7.41-16.99-14.03-12.46-30.73
			c3.9-14.39,7.21-28.94,10.86-43.4c1.16-4.61,1.36-8.34-4.3-10.38c-32.72-11.8-61.11-30.25-84.87-55.73
			c-2.14-2.3-4.58-4.32-6.95-6.39c-0.56-0.49-1.4-0.66-2.88-1.32c-7.2,6.58-15.32,9.19-26.25,8.15
			c-7.55-0.72-11.08,8.69-10.33,16.94c1.44,15.9-4.22,29.29-13.99,41.36c-11.68,14.44-22.8,17.64-40.3,11.92
			c-11.28-3.69-21.25-9.93-31.62-15.43c-8.48-4.5-11.38-10.39-3.7-19.38c-34.61-8.59-60.61-29.31-85.68-51.5
			c-6.24-5.52-11.59-11.96-15.15-19.48c-8.31-17.5,3.45-28.15,14.37-38.35c18.85-17.61,38.16-18.47,60.15-4.57
			c16.6,10.5,31.88,22.72,46.4,34.81c5.05-1.05,6.53-4.49,8.69-7.19c-0.17-0.79-0.07-1.74-0.5-2.19
			c-10.98-11.49-11.65-14.55-2.4-27.24c11.8-16.19,24.35-31.83,36.53-47.75c2.78-3.63,5.34-7.43,8.73-12.17
			C724.17,563.07,717.71,567.4,709.9,569.8z M1047.29,500.44c9.92-0.24,19.61,1.39,29.23,3.61c16.04,3.71,32.41,5.74,48.26,10.49
			c27.61,8.27,57.05,12.78,74.65,39.82c1.18,1.81,3.05,3.7,6.34,3.42c1.82-0.9,2.85-2.89,3.93-5.05
			c7.03-14.07,11.07-29.19,16.03-44.02c14.61-43.63,22.3-88.25,19.28-134.31c-1.45-22.09-6.56-43.7-17.9-62.74
			c-23.4-39.27-69.85-53.77-112.47-23.07c-19.22,13.84-36.29,28.68-35.97,56.67c0.34,29.12-8.38,56.51-28.1,79.28
			c-1.22,1.4-2.17,3.42-2.39,5.25c-2.51,20.64-4.9,41.3-7.21,61.97C1040.57,495.4,1040.79,499.02,1047.29,500.44z M951.29,837.27
			c41.61,3.65,83.25,4.74,124.65-1.79c18.55-2.92,37.23-5.68,55.24-11.52c6.74-2.19,9.47-5.53,7.44-13.08
			c-3.26-12.09-4.98-24.56-7.69-36.82c-3.53-16-4.94-32.2-2.87-49.06c1.86-15.14,9.35-28.53,11.28-43.44
			c-95.16,34.42-191.7,50.66-294.19,33.78c18.9,17.18,40.5,24.08,61.92,31.17c21.52,7.12,44.01,9.61,69.29,11.75
			c-5.88,5.62-9.93,8.19-15.13,8.76c-12.49,1.37-24.91,4.1-37.57,1.92c-8.43-1.45-13.15,1.52-15.18,10.32
			c-2.91,12.66-2.75,25.79-6.73,38.28c-1.87,5.86,2.44,7.88,7.49,9.73C922.25,832.05,936.14,832.85,951.29,837.27z M874.65,544.96
			c-14.19-8.35-27.52-18.07-42.42-25.32c-19.14-9.3-26.44-9.03-40.78,6.3c-27.14,29.02-47.97,63.08-73.35,93.54
			c-3.04,3.64-3.93,7.98,2.02,10.41c21.97,8.95,39.92,23.07,53.22,42.44c5.98-1.84,8.38-6.1,11.12-9.82
			c17.9-24.3,35.87-48.54,53.37-73.13c3.59-5.04,7.5-7.54,12.72-4.92c5.31,2.67,2.31,7.43,0.95,11.43c-0.63,1.84-1.5,3.71,1.52,6.74
			c28.31,0.21,57.92,1.16,90.93-1.26C921.36,579.3,899.59,561.55,874.65,544.96z M1155.78,616.47
			c-19.36,8.59-38.87,17.07-59.32,22.46c-34.54,9.09-69.48,16.16-104.96,21.16c-56.36,7.95-112.24,7-167.95-4.03
			c-14.65-2.9-15.33,10-20.11,17.13c-4.61,6.88,3.22,9.96,8.19,12.67c15.09,8.24,31.78,10.8,48.45,13.83
			c40.71,7.41,81.67,5.96,122.4,2.32c22.94-2.05,45.71-7.36,68.5-11.43c38.59-6.89,74.1-20.05,106.52-41.83
			c17.61-11.83,30.82-26.39,30.03-50.52C1176.88,604.29,1167.06,609.87,1155.78,616.47z M1145.33,598.2
			c7.93-4.28,15.95-8.41,23.78-12.88c7.05-4.02,14.02-9.77,13.34-17.95c-0.71-8.6-8.8-13.43-16.22-17.45
			c-0.68-0.37-1.52-0.43-2.24-0.76c-28.86-13.23-59.87-18.93-90.64-25.14c-12.59-2.54-26.28-5-38.57-2.7
			c-32.39,6.04-64.28,14.64-97.09,18.82c-7.44,0.95-15.29,2.09-22.14,5.97c5,8.11,11.91,6.61,19.16,5.78
			c60.23-6.89,120.13-7.33,179.04,10.03c6.07,1.79,11.74,4.32,12.67,10.78c0.94,6.5-3.48,10.6-9.38,13.39
			c-4.58,2.17-8.75,4.94-13.78,6.48c-29.75,9.12-60.03,15.01-90.89,19.41c-53.68,7.66-107.45,9.24-161.46,7.56
			c-12.89-0.4-16.76,2.71-18.33,16.83c10.94,2.65,21.72,6.09,33.29,6.19c45.66,0.4,91.22,2.34,136.83-4.24
			C1051.59,631.27,1098.84,619.61,1145.33,598.2z M1280.65,404.76c-10.56-1.37-16.56,1.74-15.4,13.92
			c0.47,4.94-1.44,10.08-2.06,15.15c-5.21,42.54-11.83,84.71-30.32,124.05c-4.99,10.61-11.02,19.99-21.6,25.56
			c-3.99,2.1-8.06,3.68-6.91,9.32c1.4,6.92,7.04,5.3,11.4,5.14c20.47-0.75,40.95-1.4,61.37-2.89c21.43-1.57,41.09-22.22,41.2-43.12
			c0.25-45.33-0.02-90.66,0.24-135.99c0.05-8.01-2.51-11.67-10.84-11.25C1299.48,405.07,1291.18,404.75,1280.65,404.76z
			 M953.19,273.82c-22.1,36.51-25.85,75.1-11.71,115.09c11.15,31.55,42.84,52.26,72.87,38.55c14.6-6.67,25.29-17.76,31.4-32.11
			c15.71-36.88,18.47-73.94,0.64-111.51c-14.31-30.15-45.07-43.42-72.07-29.25C966.23,258.83,959.62,265.07,953.19,273.82z
			 M904.36,332.62c-0.1-23.6-6.77-45.79-21.8-63.38c-25.45-29.79-50.47-30.55-74.13-1.16c-34.39,42.72-30.37,101.45,0.5,143.73
			c10.67,14.62,26.33,23.8,45.16,19.45c24.3-5.62,37.42-23.75,45.91-46.15C906.25,368.64,903.69,351.68,904.36,332.62z
			 M781.51,506.73c9.23-10.88,21.7-14.2,37.1-14.74c-11.39-9.66-21.16-18.71-31.74-26.69c-10.61-8.01-22.71-12.74-36.42-9.96
			c-11.91,2.42-23.78,5.1-35.56,8.1c-10.09,2.57-20.03,5.74-30.81,8.87c13.34,24.58,22.24,48.84,14.45,76.56
			c29.42-3.11,58.58-3.4,74.29-33.64C774.38,512.24,777.66,510.17,781.51,506.73z M1348.8,356.08c0.5-19.82,0.5-19.83-19.55-19.84
			c-10.62-0.01-21.23-0.02-31.85-0.01c-33.12,0.02-32.91,0.02-31.91,33.49c0.23,7.64,2.8,10.48,10.4,10.36
			c18.48-0.31,36.96-0.08,55.44-0.1c17.9-0.01,17.9-0.03,17.57-18.41C1348.89,360.39,1348.83,359.21,1348.8,356.08z M587.71,406.88
			c2.24,32.95,5.47,65.65,14.54,97.72c2.35,8.29,8.4,17.03,3.4,27.21c-6.68,13.57,0.2,25.16,5.95,38.52
			c9.84-9.73,9.77-19.38,7.56-29.17c-3.38-14.93-7.11-29.79-11.01-44.6c-9.08-34.43-6.68-70.34-13.71-105.08
			c-2.62-12.95-9.49-26.23-19.19-28.52C581.28,376.91,583.64,391.03,587.71,406.88z M727.65,747.13
			c-38.77-23.66-77.29-47.7-113.75-74.89c-9.18-6.84-17.75-15.04-30.15-17.79c1.68,5.45,5.08,8.47,8.68,11.59
			c20.49,17.76,43.2,32.41,65.89,47.08c10.53,6.81,22.84,11.83,31.26,20.62c6.81,7.11,14.05,13.03,21.61,19.08
			C719.65,759.61,724.31,757.24,727.65,747.13z M664.53,540.81c0.04,4.18,1.18,7,6.3,5.65c5.25-1.38,9.83-3.61,10.62-9.58
			c2.01-15.05-1.41-28.65-10.77-40.88c-4.67-6.1-9.11-6.6-15.19-1.17C658.81,509.27,667.53,522.97,664.53,540.81z M709.06,671.12
			c9.8,10.73,23.91,16.46,32.15,28.85c11.77-10.84,12.27-15.03,2.63-25.7c-3.65-4.04-7.99-7.55-12.37-10.82
			C718.7,653.95,715.18,655.01,709.06,671.12z"/>
		<path d="M954.72,168.05c16.74-24.03,40.57-23.24,62.53-14.64c20.54,8.04,36.87,21.85,48.16,41.21c3.44,5.89,3.51,11.11-1.5,15.96
			c-4.66,4.51-9.24,2.45-13.94-0.21c-25.42-14.37-51.6-22.29-80.86-11.55c-6.35,2.33-15.45,6.68-20.46-1.67
			c-4.15-6.91-2.49-15.21,2.05-22.34C951.95,172.85,952.99,170.75,954.72,168.05z"/>
		<path d="M836.98,150.44c33.33-8.01,49.46,9.75,57.55,33.46c4.53,13.29-2.22,20.42-15.64,16.42c-20-5.96-39.44-8.96-59.86-1.43
			c-7.77,2.86-14.67,7.24-22.39,10.03c-4.72,1.71-9.02,5.62-13.69,0.14c-4.2-4.93-3.52-9.78-0.62-15.2
			c8.66-16.16,22.17-27.2,37.64-36.11C825.01,154.84,830.64,152.92,836.98,150.44z"/>
		<path d="M1000.98,410.08c-18.3-0.81-32.13-10.56-34.07-27.56c-2.15-18.84-4.67-38.34,5.74-56.49c6.3-10.99,14.11-19,27.26-19.37
			c12.89-0.36,21.71,7.18,27.16,17.79c13.07,25.43,9.64,50.14-5.64,73.53C1016.96,404.8,1009.98,408.53,1000.98,410.08z
			 M1008.77,350.87c7.54-0.33,11.17-4.62,11.29-11.82c0.1-5.72-3.26-9.64-8.44-11.25c-4.54-1.41-7.24,2.24-9.16,5.59
			c-3.67,6.39-2.16,11.88,3.87,16.11C1006.64,349.72,1006.96,349.95,1008.77,350.87z"/>
		<path d="M849.78,406.19c-27.54-17.01-27.36-71.75-3.96-93.08c14.25-12.99,37.94-8.01,46.59,10.2
			c11.31,23.82,9.35,47.28-3.88,69.68C879.27,408.68,868.71,412.09,849.78,406.19z M868.93,346.62c5.07,3.65,9.59,2.97,13.21-2.03
			c3.31-4.57,3.92-9.25-0.15-13.92c-2.86-3.29-6.23-4.98-10.39-3.37c-6.6,2.56-6.19,8.34-5.66,13.91
			C866.07,342.68,867.04,344.07,868.93,346.62z"/>
	</g>
</g>
</svg>
