<?xml version="1.0" encoding="utf-8"?>
<!-- Generator: Adobe Adobe Illustrator 24.2.0, SVG Export Plug-In . SVG Version: 6.00 Build 0)  -->
<svg version="1.1" id="Layer_1" xmlns="http://www.w3.org/2000/svg" xmlns:xlink="http://www.w3.org/1999/xlink" x="0px" y="0px"
	 viewBox="600 0 720 960" xml:space="preserve">
<style type="text/css">
	.st0{fill:#FFFFFF;}
</style>
	<g id="Layer_2">
	<path class="st0" d="M866.1,21.01c-40.39,13.16-77.54,36.13-107.35,66.39c-14.05,14.26-27.16,31.99-26.54,52
		c0.23,7.45,2.37,14.68,4.52,21.82c9.73,32.23,19.83,67.83,5.97,98.51c-11.11,24.61-35.7,40.91-47.72,65.09
		c-19.88,39.99-0.26,87.71,21.41,126.76c12.36,22.27,25.47,50.15,11.65,71.56c-8.54,13.23-24.64,18.87-38.97,25.4
		c-29.85,13.6-57.42,36.17-68.25,67.13c-10.6,30.32-3.53,64.77,12.69,92.49c16.22,27.72,40.73,49.62,66.35,68.99
		c19.44,14.7,40.5,29.05,51.96,50.56c7.87,14.77,10.56,31.86,18.47,46.61c18.42,34.37,60.09,48.38,98.49,55.18
		c40.74,7.22,82.33,9.77,123.64,7.27c29.87-1.8,60.52-6.57,86.01-22.24c25.49-15.67,44.78-44.41,41.73-74.18
		c-1.8-17.53-10.84-33.38-15.92-50.25c-11.95-39.67,4.3-90.17,43.44-103.75c16.04-5.57,33.64-4.49,50.1-8.67
		c51.58-13.08,77.34-74.97,70.46-127.74c-2.76-21.14-9.39-42.5-5.02-63.36c3.65-17.41,14.55-32.25,22.87-47.97
		c17.68-33.39,21.41-80.26-7.76-104.27c-25.18-20.73-62.54-15.13-93.14-26.4c-26.22-9.66-46.02-31.13-64.76-51.87
		c-5.85-6.48-11.94-13.42-13.56-22c-2.43-12.87,5.98-25.38,15.87-33.96s21.73-15.04,30.12-25.09c15.74-18.86,15.83-47.47,4.87-69.45
		c-10.96-21.98-31.14-38.08-52.75-49.77C1060.81,31.94,1008.21,24.07,959,34c-5.86,1.18-11.86,2.61-17.74,1.53
		c-6.74-1.24-12.4-5.59-18.33-9.03C901.81,14.24,876.8,17.52,866.1,21.01z"/>
</g>
	<g>
	<g>
		<path d="M707.77,583.3c14.32-4.17,28.22-7.34,41.55-12.09c21.67-7.72,33.14-35.17,26.04-57.31c-7.01-21.86-20.98-39.47-32.91-58.4
			c-14.42-22.87-27.16-45.98-25.05-74.9c1.66-22.73,12.45-37.72,31.85-47.72c11.8-6.08,24.18-10.64,38.86-12.77
			c-4.21-11.32-4.33-22.42-6.24-33.03c-4.91-27.34-1.52-53.68,6.89-79.34c12.04-36.73,36.58-61.11,76.29-64.19
			c18.41-1.43,34.56,8.96,46.99,22.96c6.25,7.04,10.83,15.42,14.91,24.55c6.22-3.16,9.12-8.98,13.33-13.36
			c22.09-22.99,47.89-36.35,80.53-29.4c19.9,4.24,34.76,16.6,44.32,34.4c19.98,37.19,21.76,77.28,17.45,118.16
			c-0.43,4.05-3.21,7.62-2.42,12.86c10,2.78,19.51,7.44,28.33,13.59c12.44,8.68,22.44,19.57,29.57,32.84
			c4.03,7.51,8.93,11.28,17.92,11.04c20.61-0.55,41.25-0.23,61.88-0.13c17.43,0.09,25.1,7.85,27.11,25.01
			c1.57,13.4,0.18,26.6-0.36,39.88c-0.27,6.79-3.41,12.62-9.14,15.83c-6.61,3.71-7.88,8.85-7.86,15.7c0.11,39.67-1.3,79.39,0.24,119
			c1.33,34.2-25.98,57.52-55.91,60.02c-18.12,1.51-36.14,0.65-54.19,0.15c-7.33-0.2-11.65,3.35-13.29,9.77
			c-5.19,20.31-14.66,38.99-28.11,54.28c-17.79,20.21-16.96,42.47-13.35,65.94c3.27,21.23,7.16,42.33,12.87,63.11
			c3.73,13.55-6.81,27.69-21.66,33.49c-26.47,10.35-54.45,12.17-82.06,14.3c-45.98,3.56-91.92,0.83-137.15-9.04
			c-7.02-1.53-13.9-4.46-20.34-7.73c-15.73-7.99-20.67-18.21-15.82-35.14c3.31-11.55,3.95-23.78,9.25-34.81
			c2.55-5.3,0.83-8.54-5.21-10.56c-19.13-6.42-38.32-12.54-56.63-21.39c-31.09-15.02-52.98-38.3-66.28-69.85
			c-4.61-10.95-9.52-20.68-18.74-29.5c-22.49-21.53-21.6-41.52,5.12-63.91C678.35,595.56,692.88,589.79,707.77,583.3z M756.2,742.28
			c5.84,3.13,11.43,6.88,17.55,9.29c38.65,15.17,78.78,13.54,119.07,10.04c5.48-0.48,12.78-5.51,15.83,2.72
			c3.29,8.88-5.78,10.5-10.79,14.22c-0.98,0.73-2.34,0.91-3.48,1.45c-14.67,6.97-30.08,11.34-46.18,13.37
			c-6.63,0.84-10.43,3.83-11.47,11.44c-1.36,9.95-4.48,19.71-7.27,29.42c-2.63,9.15-0.77,13.34,8.7,14.59
			c11.62,1.54,22.79,4.94,34.37,6.84c55.3,9.05,109.81,5.54,164.08-6.84c5.89-1.34,9.76-4.41,8.43-11.4
			c-3.84-20.18-7.24-40.45-11.41-60.57c-6.27-30.26-1.22-57.25,19.25-81.48c11.7-13.86,20.58-29.87,24.53-49.4
			c-29.37,17.46-59.81,28.52-91.15,37.65c-21.27,6.2-43.15,9.62-64.47,15.41c-27.35,7.43-55.24,11.21-83.43,12.02
			c-39.1,1.12-77.72-3.6-115.85-12.28c-3.09-0.71-6.17-1.4-10.29,0.58C721.41,718.81,737.23,731.13,756.2,742.28z M1063.53,482.64
			c-13.23-24.84-29.9-47.24-51.39-65.32c-45.57-38.33-96.93-64.72-156.68-73.07c-29.94-4.19-59.45-2.99-88.46,5.51
			c-20.8,6.1-31.34,24.49-27.74,45.61c2.28,13.38,8.79,24.79,14.75,36.59c10.86,21.5,27.74,39.28,37.97,61.07
			c7.98,17,14.19,34.54,7.46,53.87c-6.87,19.74-21.55,32.12-38.64,42.43c-14.53,8.76-31.93,9.67-46.93,17.29
			c-12.11,6.15-25.15,10.64-34.68,20.98c-7.63,8.27-7.5,17.26,0.21,25.23c11.37,11.75,26.02,17.88,41.06,22.71
			c21.72,6.99,43.98,10.71,66.91,12.62c27.75,2.31,55.35,1.56,82.55-1.98c32.18-4.19,64.18-10.22,95.24-20.98
			c32.62-11.3,62.73-26.09,89.8-47.8c26.16-20.98,31.24-48.15,27.71-79.01C1080.42,518.85,1071.99,501.51,1063.53,482.64z
			 M948.11,333.3c6.47,11.48,17.06,18.56,27.67,25.49c15.28,9.98,29.54,7.47,43.64-3.3c9.49-7.25,17.81-15.7,23.48-25.76
			c23.83-42.24,26.18-86.4,4.89-129.8c-11.03-22.48-24.94-32.64-49.02-29.47c-13.53,1.78-23.94,9.94-33.23,18.94
			c-22.54,21.85-31.36,49.96-33.17,80.3C931.06,291.75,934.44,313.23,948.11,333.3z M1028.4,399.75
			c37.05,35.5,65.48,76.23,76.12,129.03c10.97-16.05,16.3-32.31,20.48-48.75c6.64-26.08,7.88-52.46,0.3-78.76
			c-6.1-21.17-15.07-41.16-34.77-52.42c-18.71-10.68-16.23-14.79-28.92,6.87c-0.8,1.36-1.77,2.62-2.63,3.95
			c-9.57,14.76-22.78,24.91-39.73,29.92C1022.48,393.23,1024.97,396.02,1028.4,399.75z M902.31,194.44
			c-1.86-2.95-3.48-6.08-5.62-8.81c-10.68-13.61-26.2-24.37-47.1-15.04c-8.62,3.85-15.71,9.72-21.31,17
			c-29.62,38.5-31.65,81.08-17.68,125.76c1.88,6.01,6.17,4.84,11.04,2.6c-0.9-5.57-1.59-10.88-2.64-16.11
			c-3.96-19.71,0.73-37.45,11.34-54.2c6.21-9.81,14.71-13.38,25.79-11.68c9.83,1.51,15.1,8.27,18.97,16.69
			c9.75,21.26,9.82,42.78,1.61,64.43c-2.09,5.52-1.61,8.73,5.2,8.33c12.96-0.78,25.97-14.83,26.33-27.95
			c0.42-15.18-1.58-30.45,1.86-45.52C914.42,231.02,912.16,212.91,902.31,194.44z M1198.1,532.6c-0.06-21.86-0.23-43.72-0.1-65.58
			c0.04-6.41-2.43-9.35-8.96-9.16c-6.33,0.19-12.72,0.39-18.99-0.28c-10.04-1.07-14.79,3.17-15.33,13.05
			c-2.32,42.31-5.07,84.6-6.73,126.93c-0.24,6.25-6.54,13.87-0.59,18.38c5.27,4,13.53,1.26,20.45,1.27
			c20.06,0.03,29.69-9.31,30.11-29.5C1198.32,569.99,1198.08,552.25,1198.1,532.6z M1189.78,428.6c28.94,0.55,22.6,1.53,23.59-21.47
			c0.26-6.18-2.23-8.53-8.27-8.45c-13.58,0.18-27.16-0.01-40.74,0.03c-10.99,0.03-11.71,0.84-10.93,12.07
			c0.17,2.5,1.02,4.97,1.13,7.47c0.37,8.11,4.88,10.88,12.49,10.55C1173.98,428.48,1180.94,428.7,1189.78,428.6z"/>
		<path d="M990.8,70.3c7.12-5.22,14.82-5.88,22.3-5.22c34.38,3.04,59.61,22,81.05,47.4c9.82,11.63,12.16,26.91,19.84,39.57
			c1.84,3.03,0.64,6.26-1.63,8.77c-2.33,2.58-5.18,1.1-7.99,0.77c-15.3-1.78-25.92-12.56-38.19-19.97
			c-19.38-11.71-39.55-20.88-61.97-25.02c-6.78-1.25-13.48-3.65-19.81-6.43c-8.83-3.88-10.77-18.51-3.99-29.47
			C982.84,76.75,985.45,72.57,990.8,70.3z"/>
		<path d="M793.93,106.44c11.44-22.01,31.46-31.79,52.37-40.44c11.47-4.75,22.75-8.27,35.76-5.79
			c17.15,3.27,29.75,18.75,27.29,35.99c-1.14,8.01-6.21,12.06-13.85,13.45c-12.37,2.25-24.87,4.18-37.21,6.2
			c-19.72,3.22-33.54,15.03-48.75,25.39c-1.3,0.89-2.64,1.79-3.74,2.9c-5.28,5.29-11.4,9.34-18.37,4.21
			c-7.23-5.33-6.25-13.91-3.74-20.95C786.18,120.39,788.78,113.07,793.93,106.44z"/>
		<path d="M813.98,670.92c-29.72-3.55-58.93-4.92-86.18-16.62c-9.49-4.08-20.52-8.05-20.62-19.66
			c-0.09-10.99,10.5-16.06,19.49-19.78c15.11-6.26,30.82-10.95,46.37-16.07c22.79-7.5,34.9-25.68,41.74-48.02
			c7.85-25.67-2.09-47.53-13.43-69.43c-9.2-17.76-23.13-32.38-32.42-50.07c-2.68-5.11-4.92-10.35-6.48-15.76
			c-4.2-14.58,7-26.12,25.07-28.94c28.12-4.4,55.89-1.78,83.79,4.58c58.97,13.45,108.54,42.35,149.05,86.9
			c13.48,14.82,23.71,31.85,29.07,51.43c9.64,35.21-5.4,72.46-36.54,92.46c-30.75,19.76-64.41,31.25-99.99,38.58
			C880.5,667.17,847.97,671.33,813.98,670.92z"/>
		<path d="M965.29,240.58c20.97-4.06,35.38,5.14,41.01,25.57c5.57,20.23,4.72,39.85-4.98,58.94c-4.07,8.01-9.98,13.82-17.43,18.21
			c-9.88,5.82-22.67,1.53-31.21-10.12c-14.67-19.98-14.13-62.11,0.9-82.02C956.7,247.05,960.5,243.85,965.29,240.58z"/>
	</g>
</g>
</svg>
