<?xml version="1.0" encoding="utf-8"?>
<!-- Generator: Adobe Adobe Illustrator 24.2.0, SVG Export Plug-In . SVG Version: 6.00 Build 0)  -->
<svg version="1.1" xmlns="http://www.w3.org/2000/svg" xmlns:xlink="http://www.w3.org/1999/xlink" x="0px" y="0px"
	 viewBox="380 610 260 180" xml:space="preserve">
<style type="text/css">
	.st0{display:none;}
	.st1{display:inline;}
	.st2{fill:#FFFFFF;}
	.st3{clip-path:url(#SVGID_2_);}
	.st4{clip-path:url(#SVGID_4_);}
</style>
<g id="Layer_1" class="st0">
	<g id="Layer_4" class="st1">
		<path class="st2" d="M751.48,343.92c-16.94,4.15-34.29,8.47-48.68,18.32c-14.39,9.85-25.42,26.55-23.52,43.89
			c0.71,6.43,3.12,12.61,3.56,19.07c0.55,8.09-2.01,16.02-4.04,23.87c-5.41,20.87-7.2,42.68-5.28,64.16
			c0.86,9.67,2.42,19.77-1.07,28.83c-5.82,15.09-23.08,21.79-34.51,33.22c-17.12,17.11-19.5,46.9-5.33,66.51
			c2.12,2.94,4.65,5.86,5.09,9.46c0.54,4.35-2.09,8.35-4.01,12.29c-9.25,18.91-3.04,41.73,6.33,60.58
			c20.26,40.75,55.05,74.08,96.63,92.57c5.99,2.67,12.48,5.32,16.15,10.75c7.17,10.59-0.01,24.83,1.05,37.58
			c1.11,13.27,11.54,24.29,23.59,29.94c12.06,5.65,25.63,6.9,38.89,8.07c54.5,4.82,109.82,9.6,163.58-0.55
			c12.23-2.31,25.27-5.98,32.89-15.83c5.9-7.63,7.5-17.76,7.31-27.4c-0.46-23.75-10.43-46.23-14.12-69.69
			c-3.69-23.46,1.25-51.46,21.87-63.24c18.9-10.8,43.34-3.83,63.8-11.27c25.71-9.36,38.24-38.64,42.17-65.72
			c2.5-17.22,2.71-34.78,0.63-52.06c-1.37-11.32-3.7-22.92-0.92-33.98c2.39-9.52,8.35-17.69,12.46-26.6
			c5.55-12.03,7.69-25.61,6.12-38.77c-1.1-9.18-4.23-18.56-11.04-24.82c-18.57-17.08-51.32-2.25-72.36-16.19
			c-11.29-7.48-16.27-21.42-25.45-31.38c-21.03-22.82-57.36-19.7-87.84-13.89c-1.85,0.35-3.83,0.7-5.58-0.02
			c-2.55-1.06-3.69-3.96-4.67-6.54c-9.73-25.54-29.86-46.93-54.76-58.19c-24.9-11.26-54.26-12.24-79.86-2.67
			c-5.2,1.94-10.66,4.35-16.1,3.23c-3.33-0.68-6.24-2.63-9.26-4.2C772.01,336.34,755.32,336.55,751.48,343.92z"/>
	</g>
	<g class="st1">
		<defs>
			
				<rect id="SVGID_1_" x="608.75" y="376.07" transform="matrix(6.123234e-17 -1 1 6.123234e-17 252.68 1502.8187)" width="538" height="498"/>
		</defs>
		<clipPath id="SVGID_2_">
			<use xlink:href="#SVGID_1_"  style="overflow:visible;"/>
		</clipPath>
		<g class="st3">
			<defs>
				<path id="SVGID_3_" d="M1537.39,1610.24c-250.67,250.67-1195.19,275.73-1418,0c-323.37-400.18-397.11-1730.87,0-2058
					c273.61-225.4,1165.2-248.52,1418,0C1904.29-87.07,1901.2,1246.44,1537.39,1610.24z"/>
			</defs>
			<clipPath id="SVGID_4_">
				<use xlink:href="#SVGID_3_"  style="overflow:visible;"/>
			</clipPath>
			<g class="st4">
				<g>
					<path d="M571.48,559.47c0-43.88,0.14-87.19-0.05-130.5c-0.13-29.67,10.08-55.52,29.04-77.79c14.46-16.98,32.76-28.74,54-36.15
						c15.74-5.49,31.77-7.94,48.35-7.94c113.62,0.05,227.24,0.23,340.86-0.13c26.38-0.09,51.11,5.42,74.17,17.66
						c15.08,8.01,28.05,18.87,38.6,32.7c12.33,16.16,19.74,34.16,23.19,53.97c0.58,3.32,0.58,6.77,0.58,10.16
						c0.03,136.36,0.09,272.72-0.03,409.08c-0.02,22.17-7.81,41.97-20.23,60.17c-20.97,30.72-50.88,46.89-86.72,53.35
						c-6.48,1.17-13.08,1.77-19.74,1.76c-118.92-0.07-237.85,0.22-356.77-0.23c-34.84-0.13-65.28-12.78-90.32-37.44
						c-23.53-23.17-35.05-51.2-34.98-84.28C571.59,735.92,571.48,647.98,571.48,559.47z M1105.45,916.96
						c13.21-7.25,25.08-16.09,34.46-28.08c13.8-17.65,23.8-36.76,23.8-59.84c0.01-134.48,0.03-268.96-0.03-403.45
						c-0.01-20.43-6.32-38.73-18.75-55.15c-23.65-31.24-55.81-46.34-94.02-46.58c-114.57-0.72-229.15-0.2-343.73-0.32
						c-13.89-0.01-27.3,1.58-40.8,5.3c-27.99,7.71-48.78,24.69-64.18,48.33c-10.06,15.44-14.22,33.11-14.21,51.7
						c0.07,132.97,0.01,265.94,0.1,398.91c0.02,27.49,11.97,50.42,30.79,69.12c23.08,22.93,51.84,33.54,84.67,33.48
						c114.58-0.2,229.16-0.2,343.73-0.06C1067.5,930.33,1086.67,926.63,1105.45,916.96z"/>
					<path d="M927.85,451.82c18.71-11.37,38.42-17.65,59.86-13.17c23.18,4.84,39.88,19.18,51.17,39.68
						c2.55,4.63,5.44,6.25,10.62,6.15c16.47-0.32,32.95-0.12,49.43-0.15c2.85-0.01,5.65,0.19,8.44,0.91
						c8.6,2.2,13.34,7.6,13.55,16.49c0.25,10.4,0.09,20.8,0.03,31.21c-0.04,7.1-3.01,12.46-9.9,14.97c-2.91,1.06-3.45,2.9-3.45,5.64
						c0.02,34.79,0.11,69.58-0.16,104.36c-0.12,15.52-8.03,26.67-21.23,34.37c-9.1,5.3-19.04,7.03-29.39,7.03
						c-12.69,0.01-25.38,0.06-38.07-0.05c-3.18-0.03-5.09,0.62-6.18,4.13c-6.13,19.66-15.82,37.37-28.73,53.53
						c-6.93,8.68-8.82,19.09-7.53,30.44c1.9,16.69,5.03,33.11,8.43,49.51c0.8,3.87,2.06,7.64,2.9,11.5
						c3.02,13.85-1.4,22.64-14.71,27.88c-9.65,3.8-19.64,6.72-29.99,8.16c-24.02,3.34-48.16,5.01-72.39,4.38
						c-21.73-0.56-43.47-1.77-64.73-6.71c-8.22-1.91-16.47-4.18-23.95-8.48c-7.59-4.36-11.96-11.99-9.9-20.41
						c2.95-12.05,4.9-24.37,9.2-36.07c1.09-2.96-0.25-4.34-2.82-4.96c-13.81-3.33-27.11-8.11-40.18-13.62
						c-26.96-11.35-46.84-29.97-58.57-56.92c-1.95-4.48-4.32-8.82-4.87-13.84c-0.29-2.66-2.44-4.08-4.52-5.5
						c-9.27-6.36-15.88-14.67-17.41-26.05c-1.44-10.66,1.93-19.43,10.74-26.35c9.65-7.57,20.62-11.69,32.26-14.65
						c1.73-0.44,3.83-0.3,5.33-2.32c-4.46-2.9-9.67-3.15-14.46-4.5c-9.76-2.75-18.96-6.5-26.91-12.88
						c-10.3-8.25-15.97-18.56-13.2-32.09c1.2-5.87,4.48-10.81,9.18-14.57c8.9-7.11,19.29-9.9,30.52-10.47
						c18.29-0.93,35.63,3.8,52.8,8.96c25.68,7.71,50.88,16.98,76.91,23.55c16.86,4.25,34.05,6.87,51.24,9.39
						c1.59,0.23,3.43,0.56,5.2-1.37c-3.01-14.23-3.89-28.99-2.91-44.54c-31.66,8.27-53.03-5.5-69.14-31.54
						c-2.94,4.11-5.5,7.78-8.14,11.38c-13.79,18.77-36.54,27.75-59.05,19.56c-18.65-6.79-29.83-21.2-35.24-39.6
						c-7.85-26.69-6.78-53.24,7.37-77.74c13.14-22.76,33.86-35.05,60.39-26.37c12.77,4.18,21.73,13.32,29.1,24.22
						c2.27,3.36,3.75,7.31,7.52,10.73c12.08-21.08,26.67-38.41,53.51-37.57c26.71,0.83,40.94,18.2,51.82,40.2
						C914.48,462.26,920.99,457.15,927.85,451.82z M861.02,867.99c20.06,1.96,40.09,0.55,60.01-1.51c13.85-1.44,27.66-3.9,41.1-7.89
						c3.24-0.96,5.62-2.43,4.64-6.36c-4.7-18.84-7.07-38.11-10.84-57.12c-4.02-20.26,1.65-38.06,14.29-53.9
						c10.69-13.41,19.16-27.86,22.52-44.41c-43.87,27.8-93.52,37.2-143.75,43.47c-50.29,6.28-100.75,7.85-151.3-5.39
						c1.41,2.67,2.3,4.73,3.51,6.6c15.98,24.68,38.78,39.81,67.02,46.91c27.21,6.83,54.7,5.65,82.2,1.88
						c2.48-0.34,5.62-1.91,6.79,1.64c1.08,3.3,0.02,6.27-3.28,8.22c-4.91,2.89-10.1,5.08-15.41,7.13
						c-10.11,3.9-20.55,6.23-31.25,7.59c-2.35,0.3-4.46,0.72-5.16,3.51c-2.72,10.95-5.36,21.91-8.32,32.79
						c-1.24,4.58,0.54,6.32,4.74,7.48C818.62,864.16,839.02,867.64,861.02,867.99z M1028.33,570.01
						c3.77-15.88,6.02-31.84,3.42-48.19c-3.07-19.3-8.28-37.51-23.42-51.38c-12.26-11.23-26.54-15.48-42.83-13.23
						c-22.43,3.09-37.89,16.7-50.82,34.02c-1.18,1.59-1.88,3.26-1.74,5.25c0.32,4.55-0.47,9.03-0.79,13.54
						c-1.41,19.93-8.57,37.33-22.3,51.93c-1.61,1.71-2.77,3.39-2.84,5.91c-0.48,17.86,1.52,35.36,7.22,52.36
						c0.61,1.82,1.38,3.32,3.77,3.63c7.48,0.98,14.94,2.16,22.39,3.35c16.78,2.67,33.47,5.54,49.34,12.17
						c5.32,2.22,11.24,6.63,17.19,0.34c5.06-5.35,10.75-10.08,15.42-15.83C1015.09,608.23,1023.64,590.57,1028.33,570.01z
						 M855,720.19c1.48-0.3,2.95-0.71,4.45-0.88c22.8-2.62,44.97-8.01,66.78-15c16.13-5.16,31.65-11.47,43.43-24.43
						c8.46-9.31,6.71-17.62-4.95-22.47c-9.8-4.08-19.98-6.85-30.36-9.09c-24.05-5.2-48.67-6.06-72.92-9.82
						c-30.53-4.73-60.33-11.99-89.73-21.21c-23.06-7.23-45.64-15.99-69.62-20.12c-9.79-1.69-19.2-1.27-28.39,2.34
						c-6.15,2.41-8.87,8.27-6.77,14.33c0.73,2.09,1.71,4.41,4.74,3.9c14.22-2.4,27.96,0.65,41.36,4.56
						c24.29,7.08,48.23,15.37,72.54,22.4c24.12,6.98,48.44,13.52,73.8,14.23c19.68,0.55,39.36,0.77,59.04,1.36
						c7.37,0.22,14.66,1.38,21.77,3.48c3.88,1.14,5.18,4.26,5.8,7.68c0.58,3.21-1.3,5.53-3.93,6.94c-4.99,2.65-9.71,5.79-15.22,7.49
						c-27.7,8.51-55.85,14.62-84.77,17.2c-35.73,3.19-71.39,3.49-106.94-1.69c-7.57-1.1-15.45-1.76-22.15-6.3
						c-8.14-5.51-8.2-10.62,0.14-15.9c6.78-4.29,14.39-6.69,22.06-8.81c8.18-2.25,16.43-4.25,24.65-6.36
						c-9.61-1.53-19.03-0.93-28.41,0.28c-18.11,2.33-35.68,6.57-51.68,15.73c-9.23,5.28-10.23,15.62-2.26,22.6
						c4.56,3.99,9.82,7.24,15.46,9.4c21.58,8.28,44.29,11.37,67.14,12.64C791.45,726.39,822.79,724.29,855,720.19z M842.42,444.17
						c-11.34,3.74-18.88,12.08-23.94,22.13c-9.42,18.7-12.89,38.33-6.11,58.96c4.41,13.41,11.36,25.16,24.23,31.42
						c20.39,9.92,38.5,0.88,49.75-18.06c5.05-8.51,7.25-18.02,8.12-27.98c1.77-20.22-1.03-38.94-14.54-55.13
						C870.81,444.58,857.26,440.06,842.42,444.17z M711.75,479.57c-3.35,12.36-4.15,24.87-1.86,37.5
						c2.76,15.2,9.4,28.31,21.99,37.69c6.66,4.96,14.33,7.27,22.9,5.88c13.59-2.21,22.84-10.8,28.31-22.21
						c13.73-28.64,13.12-56.67-6.76-82.95c-10.69-14.12-31.44-17.13-45.43-6.28C721.09,456.8,715.37,466.98,711.75,479.57z
						 M1086.27,560.2c-0.77-3.7,2.43-9.56-5.06-9.65c-8.33-0.11-16.65,0.01-24.98-0.08c-3.08-0.03-4.04,1.36-4.64,4.32
						c-2.68,13.21-1.97,26.66-3.02,39.98c-1.43,18.04-1.37,36.2-2.89,54.23c-0.62,7.39,0.33,14.97-2.62,22.31
						c-2.1,5.24-0.08,7.06,5.72,7.12c4.35,0.04,8.71,0.01,13.06-0.02c15.78-0.09,24.42-8.79,24.43-24.68
						C1086.29,622.91,1086.27,592.1,1086.27,560.2z M1049.53,511.45c0.43,4.49,0.8,9,1.31,13.48c0.33,2.9,1.51,4.93,5,4.91
						c12.87-0.1,25.75-0.11,38.62-0.06c3.16,0.01,4.41-1.36,4.35-4.46c-0.11-5.29-0.24-10.6,0.05-15.88c0.24-4.36-1.69-5.54-5.7-5.5
						c-12.87,0.13-25.75-0.02-38.62,0.02C1048.31,503.98,1048.03,504.42,1049.53,511.45z"/>
					<path d="M837.68,367.08c13.38-4.44,24.36,1.45,35.46,6.65c10.23,4.8,18.36,12.44,26.68,19.81c1.23,1.09,2.16,2.64,2.88,4.15
						c2.04,4.27,2.14,8.54-1.51,11.98c-3.5,3.3-7.57,2.91-11.55,0.71c-8.48-4.68-17.19-8.63-27.02-9.54
						c-10.77-0.99-21.08,0.52-30.92,5.09c-4.26,1.97-8.72,3.35-12.76-0.13c-4.29-3.69-3.5-8.59-1.8-13.1
						C821.13,382.12,826.24,372.31,837.68,367.08z"/>
					<path d="M744.26,369.06c25.19-7.21,37.28,8.05,43.58,26.82c1.05,3.13,1.04,6.89-1.95,9.5c-3.24,2.82-7.02,2.75-10.67,1.08
						c-19.83-9.11-38.66-6.18-56.7,4.79c-3.61,2.2-6.27,1.87-9.01-0.93c-2.97-3.03-4.96-6.35-2.45-10.61
						c6.99-11.87,16.66-20.85,29.15-26.76C738.76,371.75,741.31,370.51,744.26,369.06z"/>
					<path d="M884.78,504.96c-0.71,13.96-3.86,26.36-15.62,34.59c-8.11,5.68-17,4.62-23.21-3.09c-9.09-11.3-11.7-24.31-7.58-38.27
						c1.59-5.38,3.71-10.67,6.82-15.49c4.29-6.63,10.1-10.95,18.09-10.84c8.27,0.12,13.26,5.42,16.73,12.49
						C883.12,490.71,885.52,497.18,884.78,504.96z M871.25,499.09c3.91-0.22,4.9-2.75,4.94-6.12c0.03-2.76-1.06-4.75-3.77-5.5
						c-2.7-0.75-4.8,0.46-6.2,2.69C864.05,493.61,865.78,497.19,871.25,499.09z"/>
					<path d="M768.08,540.19c-11.38,6.25-24.53-2.93-28.19-15.08c-4.35-14.43-3.86-28.7,3.42-42.19
						c3.81-7.07,9.78-11.57,18.17-11.56c8.73,0.01,14.29,4.99,18.04,12.43c8.52,16.94,7.45,33.27-3.1,49.02
						C774.36,535.87,771.38,537.88,768.08,540.19z M765.04,490.7c-1.32,3.15-0.1,5.49,2.49,7.25c1.87,1.27,3.93,1.37,5.82,0
						c1.99-1.44,2.77-3.5,2.6-5.92c-0.16-2.34-1.5-3.87-3.63-4.56C769.45,486.55,767.16,487.57,765.04,490.7z"/>
				</g>
			</g>
		</g>
	</g>
</g>
<g id="Layer_5">
	<g id="Layer_6">
		<path class="st2" d="M393.53,730.15c-2.05-19.66-4.03-40.01,2.04-58.9c6.06-18.89,22.47-36.02,42.06-36.2
			c9.8-0.09,19.14,3.94,28.88,4.93c16.41,1.67,32.39-5.29,48.06-10.75c27.9-9.72,57.26-15,86.66-15.59
			c18.64-0.37,39.64,2.34,50.85,17.26c10.01,13.33,8.46,33.33-1.11,47.22s-25.71,22.09-42.13,25.11
			c-6.81,1.25-14.35,2.01-19.18,7.06c-2.21,2.31-3.58,5.28-4.91,8.19c-3.94,8.63-7.88,17.26-11.82,25.89
			c-2.96,6.48-5.93,12.98-9.78,18.96c-6.37,9.88-15.13,18.19-25.29,23.99c-10.05,5.73-22.28,8.98-33.07,5.14
			c-10.97-3.91-18.66-14.41-29.71-18.1c-13.88-4.63-28.99,2.6-43.63,1.8C409.6,774.96,395.88,752.74,393.53,730.15z"/>
	</g>
	<g>
		<g>
			<path d="M597.96,631.76c12.2,1.11,24.09-3.17,34.7,4.24c8.22,5.74,11.44,17.86,6.19,26.33c-9.88,15.95-26.35,21.06-43.09,25.49
				c-6.81,1.8-14.51-0.27-21.06,4.77c1.32,9.37,5.21,18.68-0.14,28.25c-1.98,3.55-3.79,7.11-6.46,10.16
				c-2.07,2.36-4.26,4.59-4.96,7.82c-4.4,20.41-17.81,31.93-37.23,37.3c-12.32,3.41-23.13-0.46-31.71-9.04
				c-3.79-3.78-7.17-5.93-12.35-6.99c-6.31-1.29-12.99-2.23-18.35-6.55c-2.47-1.99-5.15-2.05-7.82-0.23
				c-16.3,11.1-33.41-3.05-38.24-19.13c-6.46-21.48-5.58-43.16,4.74-63.81c6.98-13.98,23.58-21.66,39.31-12.31
				c3.42,2.03,6.18,2.03,9.56,0.12c24.97-14.07,51.6-21.75,80.48-20.78C566.97,637.94,581.64,631.8,597.96,631.76z M536.21,650.88
				c-15.47,2.17-30.77,5.37-45.18,11.33c-10.69,4.42-24.32,6.29-25.38,22.33c-0.16,2.45-3.02,5.49-6.17,4.6
				c-4.27-1.21-2.55-4.81-2.03-7.87c1.46-8.5-2.27-15.22-9.01-15.45c-6.32-0.22-10.25,4.11-13.1,9.19
				c-9.65,17.21-7.35,35.87-5.2,54.07c1.19,10.08,10.64,14.71,18.87,11.6c1.49-6.52-4.01-14.57,4.54-20.93
				c5.03,18.13,17.58,25.34,34.11,26.65c11.84,0.94,22.82-2.51,33.1-8.33c2.88-1.63,5.77-4.26,9.62-0.75
				c-2.82,12.74-7.18,23.69-27.16,19.08c14.85,10.26,26.73,8.88,37.76-1.65c10.77-10.29,12.48-24.01,5.47-35.58
				c-3.64-6.01-10.16-9.6-13.94-16.92c14.69-3,19.22,9.42,28.91,16.28c9.66-25.83-12.63-32.95-25.48-44.57
				c3.82-4.6,7.12-2.89,10.17-1.53c3.47,1.55,6.9,2.82,10.79,2.77c11.9-0.14,23.83,0.43,35.68-0.37
				c10.36-0.7,19.92-4.49,28.12-11.32c4.12-3.43,5.87-7.54,4.03-12.42c-1.67-4.42-5.34-6.78-10.34-6.6c-2.81,0.1-5.74-0.4-8.43,0.2
				C583.5,649.61,560.71,650.34,536.21,650.88z"/>
		</g>
	</g>
</g>
</svg>
