<?xml version="1.0" encoding="utf-8"?>
<!-- Generator: Adobe Adobe Illustrator 24.2.0, SVG Export Plug-In . SVG Version: 6.00 Build 0)  -->
<svg version="1.1" id="Layer_2" xmlns="http://www.w3.org/2000/svg" xmlns:xlink="http://www.w3.org/1999/xlink" x="0px" y="0px"
	 width="1920px" height="1080px" viewBox="0 0 1920 1080" style="enable-background:new 0 0 1920 1080;" xml:space="preserve">
<style type="text/css">
	.st0{clip-path:url(#SVGID_3_);}
</style>
<g id="Layer_3">
	<g>
		<defs>
			<rect id="SVGID_1_" x="-874.27" y="-962" width="3956.22" height="4076.1"/>
		</defs>
		<defs>
			<path id="SVGID_2_" d="M812.71,44.8c-76.27,31.65-135.38,130.34-148.82,178.47c-19.67,70.46-16.32,170.65-9.37,252.93
				c-11.39-21.42-43.8-18.18-60.52-0.62c-16.73,17.57-19.74,52.33-11.91,75.29c7.83,22.96,12.93,49.25,26.94,69.05
				s39.24,36.25,41.68,60.38c2.5,24.68-0.78,47.24,22.34,63.51c6.05,4.26,27.58,15.76,28.13,23.14c2,26.73,6.57,41.46,7.45,53.21
				c5.92,79.1,169.13,246.69,269.91,246.69c28.9,0,57.41,9.21,86.07,5.55c67.21-8.59,124.35-51.43,178.02-92.79
				c42.78-32.97,96.27-70.56,113.91-121.6c10.79-31.24,1.59-63.47,8.24-95.85c0.81-3.96,1.93-8.21,5.13-10.68
				c4.15-3.21,10.01-2.17,15.25-2.36c27.74-1.02,38.5-35.28,48.61-61.14c21.83-55.82,67.68-99.91,75.3-159.36
				c3.11-24.28-11.92-60.61-32.47-73.91c-26.87-17.38-48.46,5.9-76.8,20.75c9.38-86,18.26-176.03-13.63-256.45
				c-26.59-67.05-80.81-121.82-145.8-153.11c-57.79-27.82-130.99-51.28-194.74-58.35C955.03-2.49,865.06,23.08,812.71,44.8z"/>
		</defs>
		<clipPath id="SVGID_3_">
			<use xlink:href="#SVGID_1_"  style="overflow:visible;"/>
		</clipPath>
		<clipPath id="SVGID_4_" class="st0">
			<use xlink:href="#SVGID_2_"  style="overflow:visible;"/>
		</clipPath>
	</g>
</g>
</svg>
