<?xml version="1.0" encoding="utf-8"?>
<!-- Generator: Adobe Adobe Illustrator 24.2.0, SVG Export Plug-In . SVG Version: 6.00 Build 0)  -->
<svg version="1.1" xmlns="http://www.w3.org/2000/svg" xmlns:xlink="http://www.w3.org/1999/xlink" x="0px" y="0px" width="1920px"
	 height="1080px" viewBox="0 0 1920 1080" style="enable-background:new 0 0 1920 1080;" xml:space="preserve">
<style type="text/css">
	.st0{fill:#FFFFFF;}
	.st1{clip-path:url(#SVGID_2_);}
	.st2{clip-path:url(#SVGID_4_);}
	.st3{display:none;}
</style>
<g id="Layer_1">
	<g id="Layer_4">
		<path class="st0" d="M1167.15,486.55c-4.15-16.94-8.47-34.29-18.32-48.68c-9.85-14.39-26.55-25.42-43.89-23.52
			c-6.43,0.71-12.61,3.12-19.07,3.56c-8.09,0.55-16.02-2.01-23.87-4.05c-20.87-5.41-42.68-7.2-64.16-5.28
			c-9.67,0.86-19.77,2.42-28.83-1.07c-15.09-5.82-21.79-23.08-33.22-34.51c-17.11-17.12-46.9-19.5-66.51-5.33
			c-2.94,2.12-5.86,4.65-9.46,5.09c-4.35,0.54-8.35-2.09-12.29-4.01c-18.91-9.25-41.73-3.04-60.58,6.33
			c-40.75,20.26-74.08,55.05-92.57,96.63c-2.67,5.99-5.32,12.48-10.75,16.15c-10.59,7.17-24.83-0.01-37.58,1.05
			c-13.27,1.11-24.29,11.54-29.94,23.59c-5.65,12.06-6.9,25.63-8.07,38.89c-4.82,54.5-9.6,109.82,0.55,163.58
			c2.31,12.23,5.98,25.27,15.83,32.89c7.63,5.9,17.76,7.5,27.4,7.31c23.75-0.46,46.23-10.43,69.69-14.12s51.46,1.25,63.24,21.87
			c10.8,18.9,3.83,43.34,11.27,63.8c9.36,25.71,38.64,38.24,65.72,42.17c17.22,2.5,34.78,2.71,52.06,0.63
			c11.32-1.37,22.92-3.7,33.98-0.92c9.52,2.39,17.69,8.35,26.6,12.46c12.03,5.55,25.61,7.69,38.77,6.12
			c9.18-1.1,18.56-4.23,24.82-11.04c17.08-18.57,2.25-51.32,16.19-72.36c7.48-11.29,21.42-16.27,31.38-25.45
			c22.82-21.03,19.7-57.36,13.89-87.84c-0.35-1.85-0.7-3.83,0.02-5.58c1.06-2.55,3.96-3.69,6.54-4.67
			c25.54-9.73,46.93-29.86,58.19-54.76c11.26-24.9,12.24-54.26,2.67-79.86c-1.94-5.2-4.35-10.66-3.23-16.1
			c0.68-3.33,2.63-6.24,4.2-9.26C1174.73,507.08,1174.52,490.39,1167.15,486.55z"/>
	</g>
	<g>
		<defs>
			<rect id="SVGID_1_" x="617" y="363.82" width="538" height="498"/>
		</defs>
		<clipPath id="SVGID_2_">
			<use xlink:href="#SVGID_1_"  style="overflow:visible;"/>
		</clipPath>
		<g class="st1">
			<defs>
				<path id="SVGID_3_" d="M-99.18,1272.46c-250.67-250.67-275.73-1195.19,0-1418c400.18-323.37,1730.87-397.11,2058,0
					c225.4,273.61,248.52,1165.2,0,1418C1598.13,1639.36,264.63,1636.27-99.18,1272.46z"/>
			</defs>
			<clipPath id="SVGID_4_">
				<use xlink:href="#SVGID_3_"  style="overflow:visible;"/>
			</clipPath>
			<g class="st2">
				<g>
					<path d="M593.84,867.39c-17.73-25.36-26.27-53.18-26.26-83.7c0.02-116.85-0.35-233.71,0.23-350.56
						c0.17-34.97,12.89-65.71,37.23-91.47c13.46-14.25,29.75-23.65,47.88-29.89c10.49-3.6,21.64-5.07,32.84-5.07
						c133.54-0.01,267.09-0.54,400.62,0.29c47.05,0.29,81.69,23.57,104.19,65.03c11.48,21.16,15.58,43.97,15.61,67.63
						c0.12,114.39,0.09,228.79,0.03,343.18c-0.01,21.4-4.09,42.15-12.98,61.57c-14.4,31.44-37.73,53.8-70.52,65.53
						c-9.78,3.5-20.04,5.41-30.51,5.41c-136.57,0.02-273.14,0.28-409.7-0.19c-31.46-0.11-57.82-13.73-79.29-36.67
						C599.99,875.06,597.12,871.32,593.84,867.39z M668.62,325.49c-15.01,2.59-27.99,9.45-40.05,18.55
						c-29.09,21.94-44.73,51.95-45.05,87.43c-1.1,120.06-0.57,240.13-0.22,360.2c0.04,15.51,4.34,30.67,11.08,44.72
						c8.53,17.79,20.92,32.44,37.15,43.96c16.62,11.8,34.92,19.2,55.13,19.25c132.78,0.33,265.55,0.2,398.33,0.1
						c10.21-0.01,20.17-2.47,30.03-5.02c13.28-3.44,24.16-10.95,34.39-19.83c26.2-22.77,39.75-51.92,39.93-86.11
						c0.6-114.76,0.15-229.53,0.34-344.29c0.03-16.19-1.7-31.75-6.45-47.39c-8.29-27.29-26.3-46.25-49.32-61.02
						c-15.82-10.15-34.1-12.93-52.6-12.95c-129.94-0.1-259.88-0.03-389.82-0.1C684.06,322.98,676.77,323.57,668.62,325.49z"/>
					<path d="M841.52,396.73c7.36,6.96,10.88,15.67,13.98,24.55c1.77,5.06,3.69,10.09,4.66,15.47c3.94-10.75,6.29-21.85,11.56-31.87
						c5.36-10.2,12.06-18.4,23.88-22.59c11.83-4.19,27.2,3.22,32.57,13.8c7.82,15.42,7.91,31.42,5.14,48.02
						c-3.05,18.3-9.02,35.69-14.67,53.25c-6.28,19.51-12.39,39.14-17.08,59.07c-3.74,15.91-6.73,32.11-8.44,48.45
						c-0.05,0.51,0.25,1.05,0.53,2.17c14.71-1.58,29.27-5.69,45.31-2.56c-7.43-31.41,5.57-52.96,31.05-68.56
						c-2.63-3.83-6.58-5.09-9.7-7.39c-13.01-9.54-21.16-22.06-23.01-38.13c-1.92-16.69,3.94-30.94,15.99-42.3
						c17.86-16.83,39.79-20.43,63.42-19.26c16.11,0.8,30.89,5.04,44.05,14c9.81,6.67,18.55,14.71,22.7,26.52
						c6.76,19.27,0.89,38.64-13.03,51.68c-6.6,6.18-14.09,11.11-23.15,15.78c21.52,12.47,39.46,26.52,38.79,54.11
						c-0.66,27.44-18.83,40.73-40.37,52.16c4.37,5.3,8.86,10.26,12.81,15.63c13.64,18.55,20.15,39.45,16.91,62.3
						c-2.47,17.41-12.42,31.3-25.54,42.77c-5.09,4.45-10.53,8.52-16.74,11.35c-3.27,1.49-4,4.03-3.98,7.38
						c0.09,18.56,0.11,37.12,0.01,55.67c-0.06,10.07-5.79,16.79-15.65,17.25c-12.63,0.6-25.31,0.99-37.96-0.34
						c-4.43-0.47-7.93-2.96-8.92-6.84c-1.16-4.58-3.72-4.87-7.4-4.87c-32.72,0.02-65.44,0.04-98.16-0.14
						c-12.84-0.07-24.82-3.18-33.75-13.17c-8.51-9.52-12.3-20.99-12.29-33.74c0.01-13.63-0.16-27.27,0.08-40.9
						c0.08-4.34-1.44-6.46-5.55-7.77c-18.81-6-36.09-14.85-51.37-27.58c-6.64-5.52-14.4-8.42-23.38-8.6
						c-14.88-0.29-29.2,3.03-43.7,5.41c-10.78,1.77-21.03,5.84-32.06,6.63c-8.12,0.58-13.66-2.6-18.15-9
						c-5.25-7.48-7.79-16.15-9.35-24.72c-4.91-26.97-7.67-54.25-6.91-81.71c0.56-20.38,2.12-40.69,5.93-60.82
						c2.08-11,4.06-21.86,10.36-31.35c5.84-8.78,13.58-11.11,23.52-7.8c10.37,3.45,21.37,4.56,31.68,8.33
						c3.33,1.22,4.75-1.11,5.46-4.04c2.51-10.47,6.36-20.48,10-30.59c11.59-32.18,32.12-55.83,64.11-68.87
						c1.56-0.63,3.27-0.86,4.9-1.33c4.76-1.35,8.62-3.29,11.74-7.88c5.42-7.96,13.61-13.16,22.84-15.79
						C825.43,385.08,834,389.09,841.52,396.73z M648.96,557.96c-0.19,9.1-3.31,17.94-3.23,26.95c0.2,25.31-1.9,50.68,1.95,75.93
						c1.93,12.67,3.5,25.33,7.81,37.51c1.08,3.05,2.31,3.84,5.28,3.26c9.42-1.83,18.92-3.31,28.31-5.24
						c15.89-3.27,31.71-6.53,48.13-5.84c7.42,0.31,14.03,2.73,20.55,5.54c11.35,4.88,19.54,14.65,30.32,20.44
						c9.15,4.91,18.22,10.24,29.7,11.21c-3.26-4.54-6.59-8.09-8.81-12.44c-7.64-14.94-13.47-30.52-18.45-46.56
						c-4.82-15.52-8.82-31.21-11.62-47.14c-4.19-23.77-7.52-47.62-8.5-71.89c-1.49-36.91-2.44-73.61,6.89-109.78
						c0.47-1.82,1.17-3.93-0.01-6.25c-12.24,6.27-22.34,15-30.66,25.54c-16.93,21.45-23.74,46.64-26.25,73.41
						c-1.68,17.89,1.46,35.46,2.4,53.18c0.13,2.48,1.94,5.9-1.3,7.12c-3.49,1.3-5.87-1.7-7.96-4.18c-0.72-0.85-1.19-1.92-1.72-2.91
						c-6.84-12.77-10.81-26.45-12.42-40.79c-0.53-4.74-2.39-7.38-7.27-8.47c-10.46-2.33-20.83-5.1-31.2-7.85
						c-3.1-0.82-4.23,0.22-5.29,3.14C652.64,540.02,651.45,548.65,648.96,557.96z M1056.76,709.71c-0.02-5.66-0.24-11.16-1.84-16.79
						c-3.13-11.02-9.05-20.34-16.38-28.67c-8.23-9.35-16.9-16.69-31.51-16.54c-21.02,0.22-40.1-7.73-55.66-22.62
						c-2.22-2.13-4.55-2.91-7.57-3c-16.96-0.52-33.39,2.39-49.59,7.12c-3.19,0.93-4.46,2.75-4.83,6.03
						c-1.04,9.18-1.98,18.41-3.78,27.46c-3.28,16.45-7.04,32.84-13.59,48.34c-1.8,4.26-1.08,7.38,1.32,10.29
						c14.86,17.99,33.72,30.53,55.48,38.3c17.73,6.33,36.27,7.9,55.16,7.39c17.44-0.48,33.62-4.54,48.09-14.06
						C1047.03,743.1,1056.05,729.25,1056.76,709.71z M848.13,488.86c1.26,3.72-0.4,7.97,2.04,11.61c1.77-1.59,1.14-3.61,1.13-5.39
						c-0.17-16.65-2.06-33.05-5.95-49.31c-2.44-10.21-5.63-20.05-10.98-28.94c-7.49-12.46-16.22-12.73-25.45-1.45
						c-0.94,1.15-1.78,2.42-2.5,3.72c-5.74,10.46-9.23,21.64-11.99,33.27c-3.33,14.05-5.21,28.32-5.61,42.56
						c-0.54,19.63-0.9,39.31,0.66,58.99c2.02,25.63,5.1,51.1,10.9,76.09c4.07,17.54,8.76,35.07,16.64,51.42
						c4.42,9.16,9.24,18.2,17.59,24.55c6.14,4.67,17.15,5.74,21.13-4.8c2.53-6.71,4.34-13.6,6.5-20.4
						c5.73-17.99,7.39-36.67,9.17-55.17c2.3-23.91,6.16-47.52,11.19-70.89c3.76-17.44,9.44-34.5,14.82-51.55
						c6.34-20.09,13.94-39.8,18.04-60.55c2.26-11.44,3.32-22.81-1.57-33.96c-2.48-5.66-7.19-7.9-13.27-6.46
						c-3.88,0.92-5.48,2.59-4.38,6.72c0.97,3.65,1.01,7.36,0.54,11.23c-1.99,16.36-6.14,32.21-11.13,47.84
						c-7.1,22.24-14.34,44.41-20.7,66.88c-6.47,22.87-9.78,46.08-10.57,69.72c-0.55,16.46,0.12,32.96-1.46,49.37
						c-0.73,7.61,0.23,15.59-4.03,22.64c-3.3,5.47-9.35,6.21-13.39,1.27c-2.62-3.21-4.35-6.97-5.86-10.84
						c-3.14-8.08-5.53-16.37-7.77-24.75c-3.85-14.42-6.81-29.05-8.88-43.75c-2.21-15.67-3.72-31.45-4.09-47.4
						c-0.6-25.56-0.9-51.01,2.8-76.39c1.33-9.15,2.12-18.47,6.63-26.72c4.27-7.81,11.03-7.5,15.49,0.09
						C841.13,460.5,844.64,474.15,848.13,488.86z M1008.94,544.75c-15.73-0.6-29.7,4.09-41.75,14.23
						c-20.86,17.55-18.52,45.51,3.12,59.44c26.13,16.82,54.3,17.36,80.8,1.62c24.39-14.49,29.14-40.73,4.16-60.73
						C1042.05,548.74,1026.86,544.18,1008.94,544.75z M985.39,448.24c-5.5,1.56-10.54,4.25-15.06,7.57
						c-8.19,6.03-15.2,13.39-17.07,23.81c-2.51,14.01,3.26,25.16,14.07,33.65c13.97,10.97,30.15,14.35,47.7,13.9
						c16.12-0.41,30.41-5.23,42.7-15.37c7.87-6.49,13.45-14.77,13.74-25.56c0.32-11.62-5.61-20.47-14.22-27.01
						C1035.76,442.89,1011.93,439.14,985.39,448.24z M918.41,784.16c-17.25-2.28-34.69-1.26-51.97-3.06
						c-8.99-0.93-17.92-2.37-27.03-2.31c-4.27,0.03-5.75,1.39-5.52,5.56c0.26,4.52-0.07,9.08,0.09,13.61
						c0.47,13.06,10.62,23.37,23.55,23.43c33.25,0.15,66.49,0.01,99.74,0.1c3.79,0.01,5.5-1.11,5.4-5.17
						c-0.2-8.13-0.16-16.27,0.02-24.4c0.08-3.59-1.24-4.89-4.84-5.28C945.1,785.24,932.32,784.5,918.41,784.16z M983.93,831.72
						c0.78,2.43,2.84,2.13,4.69,2.14c4.72,0.05,9.47-0.27,14.16,0.11c5.19,0.42,6.99-1.44,6.92-6.7
						c-0.16-11.53,0.29-23.06,0.38-34.59c0.02-2.94,0.3-6.04-2-9.02c-6.28,1.85-12.86,2.09-19.41,2.61
						c-3.79,0.3-5.05,2.08-4.98,5.87C983.9,805.02,983.8,817.88,983.93,831.72z"/>
					<path d="M1145.99,592.25c-4.38,16.78-13.58,30.14-25.16,42.03c-1.96,2.01-4.11,4.14-6.97,4.62c-3.96,0.67-8.07,0.89-10.79-3.02
						c-2.71-3.89-1.93-7.89,0.06-11.79c2.21-4.35,4.85-8.45,6.42-13.17c5.19-15.59,4.75-30.66-2.99-45.39
						c-1.72-3.27-1.96-7.28-0.01-10.37c2.09-3.32,5.92-5.3,9.88-4.08c13.32,4.08,28.31,10.66,31.33,27.43
						C1148.61,583.29,1147.36,587.47,1145.99,592.25z"/>
					<path d="M1110.77,499.29c4.1-15.23,0.74-28.82-6.75-41.67c-3.43-5.9-3.75-11.47-0.5-14.05c3.6-2.86,10.43-1.95,15.27,1.67
						c11.65,8.71,20.72,19.75,25.02,33.46c5.6,17.84,2.18,32.65-19.53,41.94c-1.9,0.82-3.82,1.6-5.71,2.46
						c-3.88,1.76-7.22,1.14-10.37-1.82c-3.34-3.14-3.34-6.86-1.61-10.38C1108.38,507.29,1109.24,503.44,1110.77,499.29z"/>
					<path d="M997.97,618.85c-7.86-0.93-14.22-4.23-19.64-9.01c-12.4-10.93-9.47-27.27,5.78-33.66c15.95-6.69,31.25-4.92,45.92,3.65
						c9.74,5.69,13.85,15.19,10.41,24.35c-2.98,7.91-9.76,11.98-17.31,14.02C1015.11,620.36,1006.74,620.86,997.97,618.85z
						 M1025.74,604.01c-2.04-3.6-5.18-4.43-8.61-2.62c-2.56,1.35-3.23,3.98-2.2,6.85c1.4,3.89,4.59,3.23,7.56,2.93
						C1026.61,610.76,1026.23,607.73,1025.74,604.01z"/>
					<path d="M971.48,494.64c1.26-12.59,9.87-17.23,20.06-20.47c15.29-4.87,29.49-2.28,42.25,6.88c12.3,8.83,11.44,25.1-1.69,32.74
						c-17.96,10.45-37.77,8.8-53.87-3.72C973.53,506.41,971.75,500.97,971.48,494.64z M1016.82,501.54c-2.05,2.96-2.6,5.98,0.5,8.48
						c2.55,2.06,5.49,1.71,7.67-0.57c2.02-2.11,2.02-5.02,0.23-7.26C1023.2,499.66,1020.5,498.38,1016.82,501.54z"/>
				</g>
			</g>
		</g>
	</g>
</g>
<g id="Layer_3" class="st3">
</g>
</svg>
